<svg version="1.1" id="Layer_1" xmlns="http://www.w3.org/2000/svg" xmlns:xlink="http://www.w3.org/1999/xlink" x="0px" y="0px"
	 width="100%" viewBox="0 0 1024 672" enable-background="new 0 0 1024 672" xml:space="preserve">
<path fill="#000000" opacity="1.000000" stroke="none" 
	d="
M612.044189,399.325500 
	C582.789124,406.619568 556.468567,396.795502 539.196899,372.984344 
	C541.288269,377.446838 543.197266,382.008575 545.548645,386.329590 
	C546.713745,388.470642 547.370728,390.506744 547.363525,392.914093 
	C547.319580,407.571136 547.222656,422.229980 547.421936,436.884460 
	C547.478516,441.044006 546.050415,442.602295 541.954712,442.303558 
	C538.641113,442.061829 535.295898,442.260071 531.964722,442.250732 
	C525.386902,442.232269 525.150269,442.040192 525.134644,435.603912 
	C525.093445,418.615082 525.089111,401.626160 525.076782,384.637268 
	C525.053711,352.824768 525.016174,321.012238 525.026184,289.199738 
	C525.029419,278.981750 525.089172,278.980988 535.078369,278.924408 
	C536.743958,278.914978 538.424744,278.772095 540.071533,278.946289 
	C542.421326,279.194855 545.852112,277.685059 546.802490,280.541199 
	C547.908997,283.866821 548.371887,287.716339 545.566345,290.932648 
	C541.455505,295.645416 539.289551,301.332001 537.690308,307.342438 
	C545.089233,295.943634 554.169373,286.298431 566.837646,281.001678 
	C589.499756,271.526367 611.600586,272.885925 631.824829,287.204620 
	C651.319458,301.006805 659.799316,320.663605 658.127136,344.342285 
	C656.323425,369.883911 638.610535,390.772675 612.044189,399.325500 
M601.771545,379.539398 
	C616.067993,376.088043 627.140625,368.273895 632.741272,354.470551 
	C645.502502,323.019318 619.239441,293.137726 589.034180,297.086060 
	C556.606384,301.324921 540.802612,337.346008 560.313049,363.437042 
	C570.359558,376.872070 584.389954,381.697723 601.771545,379.539398 
z"/>
<path fill="#000000" opacity="1.000000" stroke="none" 
	d="
M465.246735,392.363739 
	C429.335815,412.694336 387.822510,399.126862 371.719421,362.080811 
	C355.228027,324.141449 383.355530,278.538635 424.630402,275.535278 
	C450.646027,273.642242 470.570831,283.489899 485.555695,304.316467 
	C486.894989,306.177917 487.844177,308.320068 489.211639,310.224609 
	C487.388092,303.638763 485.008636,297.301270 480.897125,291.717163 
	C480.109467,290.647400 479.189667,289.617859 478.661926,288.423462 
	C476.124237,282.680603 478.426575,279.040192 484.560577,278.972992 
	C487.724640,278.938354 490.904602,279.145752 494.049988,278.897156 
	C498.747833,278.525879 500.452850,280.270264 500.416748,285.155853 
	C500.222107,311.468689 500.335907,337.783752 500.334167,364.098053 
	C500.332550,388.080688 500.209412,412.064240 500.404572,436.045227 
	C500.443268,440.801208 499.055145,442.721863 494.194855,442.311340 
	C490.225830,441.976135 486.204071,442.152618 482.210083,442.262329 
	C479.198700,442.345032 477.977966,440.901245 477.984222,438.054962 
	C478.018280,422.566925 478.040283,407.078857 478.068146,391.590820 
	C478.071564,389.683136 478.836700,388.066833 479.870697,386.498871 
	C482.442444,382.598846 484.088837,378.283295 485.893738,372.580322 
	C479.509521,380.744843 473.403290,387.396576 465.246735,392.363739 
M463.328369,311.185516 
	C453.092529,300.287903 440.787018,295.452545 425.660370,297.083923 
	C405.479858,299.260315 384.773346,320.518982 390.289429,347.264038 
	C394.830292,369.280579 418.527100,384.471191 440.927643,379.120972 
	C470.150665,372.141296 484.737579,337.874817 463.328369,311.185516 
z"/>
<path fill="#000000" opacity="1.000000" stroke="none" 
	d="
M756.181763,355.996155 
	C755.984558,362.141968 756.356506,367.778473 755.475220,373.437439 
	C753.188354,388.121490 742.710205,398.233398 728.023376,399.218445 
	C723.211609,399.541229 718.360840,399.237427 713.532715,399.380432 
	C710.517639,399.469666 709.398865,398.247742 709.480713,395.228485 
	C709.579712,391.574554 709.382812,387.899231 709.087463,384.251495 
	C708.730469,379.843445 710.358826,377.620697 715.008545,378.033447 
	C716.660461,378.180084 718.340576,378.077728 720.004517,378.008484 
	C728.507446,377.654846 732.764893,373.663177 733.623840,365.132507 
	C733.840149,362.984222 733.789062,360.804840 733.789978,358.639679 
	C733.805420,323.647980 733.802246,288.656250 733.821960,253.664551 
	C733.825928,246.686646 733.861633,246.686661 740.696045,246.624802 
	C756.207947,246.484375 756.205078,246.484390 756.200928,262.019165 
	C756.192627,293.178467 756.187805,324.337799 756.181763,355.996155 
z"/>
<path fill="#000000" opacity="1.000000" stroke="none" 
	d="
M269.776794,326.000000 
	C269.769745,301.355621 269.893127,277.209869 269.650665,253.067810 
	C269.599792,248.004242 271.129333,246.085800 276.181549,246.584412 
	C279.645203,246.926270 283.186188,246.883240 286.661072,246.610687 
	C290.923859,246.276382 292.152008,248.199829 292.122498,252.161530 
	C292.008392,267.479645 292.104401,282.799194 292.093292,298.118225 
	C292.078583,318.432678 292.025604,338.747162 292.021179,359.061615 
	C292.020630,361.555939 292.065186,364.067932 292.351654,366.541321 
	C293.193237,373.806519 297.127075,377.466461 304.457794,378.003387 
	C304.789886,378.027740 305.122345,378.048615 305.454987,378.063660 
	C316.318542,378.554779 316.355103,378.554871 316.284576,389.724792 
	C316.217010,400.429932 317.300629,399.178436 306.634674,399.427368 
	C297.304901,399.645111 288.302979,399.024536 280.693512,392.715881 
	C272.922089,386.273041 269.941589,377.657227 269.812012,367.961487 
	C269.627319,354.143311 269.772705,340.320709 269.776794,326.000000 
z"/>
<path fill="#000000" opacity="1.000000" stroke="none" 
	d="
M351.286499,389.950745 
	C351.268341,399.342194 351.268341,399.342194 342.344452,399.329285 
	C328.933380,399.309906 328.963257,399.309906 328.968719,385.787048 
	C328.982239,352.309052 328.960907,318.831085 328.965210,285.353088 
	C328.966125,278.251648 328.988861,278.240265 336.238129,278.135040 
	C338.902496,278.096344 341.567932,278.112488 344.232788,278.126099 
	C351.211121,278.161743 351.285889,278.218170 351.287933,285.026062 
	C351.296539,313.673981 351.290985,342.321930 351.290070,370.969849 
	C351.289886,377.132507 351.287567,383.295166 351.286499,389.950745 
z"/>
<path fill="#000000" opacity="1.000000" stroke="none" 
	d="
M674.673706,345.999939 
	C674.671265,325.198212 674.773438,304.895569 674.584656,284.595612 
	C674.543640,280.190094 675.688904,278.105957 680.406494,278.468994 
	C683.367676,278.696808 686.380371,278.137604 689.369385,278.145386 
	C696.285400,278.163422 696.388550,278.307648 696.389038,285.089508 
	C696.391357,318.204407 696.386047,351.319336 696.387207,384.434235 
	C696.387329,388.091187 696.379944,391.748627 696.435608,395.404938 
	C696.476318,398.081390 695.323914,399.471161 692.553040,399.298431 
	C692.387695,399.288116 692.220337,399.302887 692.054321,399.312805 
	C674.663452,400.349640 674.667297,400.349670 674.675659,382.943268 
	C674.681519,370.795502 674.674988,358.647705 674.673706,345.999939 
z"/>
<path fill="#000000" opacity="1.000000" stroke="none" 
	d="
M345.638855,268.099091 
	C337.064331,270.525085 329.426544,266.985535 326.973541,259.759613 
	C324.533966,252.573090 328.002625,244.781998 334.887482,241.983765 
	C342.106537,239.049698 349.938568,242.154984 353.316376,249.290604 
	C356.732117,256.506317 354.032776,263.407745 345.638855,268.099091 
z"/>
<path fill="#000000" opacity="1.000000" stroke="none" 
	d="
M699.323547,256.728333 
	C697.684998,264.398499 692.820251,268.852020 686.119812,269.237091 
	C680.150757,269.580109 673.932800,265.439362 671.736328,259.658539 
	C669.744080,254.415268 671.733398,247.558548 676.280212,243.996536 
	C681.574280,239.849136 688.459900,239.673935 693.837158,243.664215 
	C698.059021,246.797119 699.679932,251.137665 699.323547,256.728333 
z"/>
</svg>