<?xml version="1.0" encoding="UTF-8" standalone="no"?>
<svg
   width="300"
   height="420"
   viewBox="0 0 300 420"
   version="1.1"
   id="svg42"
   sodipodi:docname="pagoda-icon.svg"
   inkscape:version="1.4.2 (ebf0e940, 2025-05-08)"
   inkscape:export-filename="pagoda-icon.png"
   inkscape:export-xdpi="234.05714"
   inkscape:export-ydpi="234.05714"
   xmlns:inkscape="http://www.inkscape.org/namespaces/inkscape"
   xmlns:sodipodi="http://sodipodi.sourceforge.net/DTD/sodipodi-0.dtd"
   xmlns="http://www.w3.org/2000/svg"
   xmlns:svg="http://www.w3.org/2000/svg">
  <sodipodi:namedview
     id="namedview42"
     pagecolor="#ffffff"
     bordercolor="#000000"
     borderopacity="0.25"
     inkscape:showpageshadow="2"
     inkscape:pageopacity="0.0"
     inkscape:pagecheckerboard="0"
     inkscape:deskcolor="#d1d1d1"
     inkscape:zoom="2.402381"
     inkscape:cx="149.64321"
     inkscape:cy="210"
     inkscape:window-width="1728"
     inkscape:window-height="1186"
     inkscape:window-x="2932"
     inkscape:window-y="60"
     inkscape:window-maximized="0"
     inkscape:current-layer="svg42" />
  <defs
     id="defs1">
    <clipPath
       id="cardmask">
      <rect
         x="0"
         y="0"
         width="300"
         height="420"
         rx="28"
         id="rect1" />
    </clipPath>
  </defs>
  <!-- Card shadow -->
  <!-- Card face -->
  <rect
     x="0"
     y="0"
     width="300"
     height="420"
     rx="28"
     fill="#000000"
     id="rect3" />
  <!-- Subtle diagonal texture -->
  <g
     clip-path="url(#cardmask)"
     opacity="0.07"
     id="g16">
    <line
       x1="0"
       y1="0"
       x2="300"
       y2="300"
       stroke="#fff"
       stroke-width="6"
       id="line3" />
    <line
       x1="30"
       y1="0"
       x2="300"
       y2="270"
       stroke="#fff"
       stroke-width="6"
       id="line4" />
    <line
       x1="60"
       y1="0"
       x2="300"
       y2="240"
       stroke="#fff"
       stroke-width="6"
       id="line5" />
    <line
       x1="90"
       y1="0"
       x2="300"
       y2="210"
       stroke="#fff"
       stroke-width="6"
       id="line6" />
    <line
       x1="120"
       y1="0"
       x2="300"
       y2="180"
       stroke="#fff"
       stroke-width="6"
       id="line7" />
    <line
       x1="150"
       y1="0"
       x2="300"
       y2="150"
       stroke="#fff"
       stroke-width="6"
       id="line8" />
    <line
       x1="180"
       y1="0"
       x2="300"
       y2="120"
       stroke="#fff"
       stroke-width="6"
       id="line9" />
    <line
       x1="210"
       y1="0"
       x2="300"
       y2="90"
       stroke="#fff"
       stroke-width="6"
       id="line10" />
    <line
       x1="0"
       y1="30"
       x2="300"
       y2="330"
       stroke="#fff"
       stroke-width="6"
       id="line11" />
    <line
       x1="0"
       y1="60"
       x2="300"
       y2="360"
       stroke="#fff"
       stroke-width="6"
       id="line12" />
    <line
       x1="0"
       y1="90"
       x2="300"
       y2="390"
       stroke="#fff"
       stroke-width="6"
       id="line13" />
    <line
       x1="0"
       y1="130"
       x2="280"
       y2="410"
       stroke="#fff"
       stroke-width="6"
       id="line14" />
    <line
       x1="0"
       y1="180"
       x2="250"
       y2="430"
       stroke="#fff"
       stroke-width="6"
       id="line15" />
    <line
       x1="0"
       y1="240"
       x2="200"
       y2="440"
       stroke="#fff"
       stroke-width="6"
       id="line16" />
  </g>
  <!-- Outer gold border -->
  <rect
     x="0"
     y="0"
     width="300"
     height="420"
     rx="28"
     fill="none"
     stroke="#D4A017"
     stroke-width="3"
     id="rect16" />
  <!-- Inner dashed gold border -->
  <rect
     x="14"
     y="14"
     width="272"
     height="392"
     rx="20"
     fill="none"
     stroke="#D4A017"
     stroke-width="1.2"
     stroke-dasharray="4,3"
     id="rect17" />
  <!-- Corner P top-left -->
  <text
     x="34"
     y="56"
     font-family="Georgia, serif"
     font-size="26"
     font-weight="700"
     fill="#FBBF24"
     text-anchor="middle"
     id="text17">P</text>
  <polygon
     points="34,62 26,70 42,70"
     fill="#FBBF24"
     id="polygon17" />
  <polygon
     points="34,62 26,70 42,70 "
     fill="#fbbf24"
     id="polygon17-6"
     transform="rotate(180,149.74331,209.18634)" />
  <rect
     x="27"
     y="70"
     width="14"
     height="5"
     rx="0"
     fill="#D4A017"
     id="rect18" />
  <text
     x="-265.47803"
     y="-363.66504"
     font-family="Georgia, serif"
     font-size="26px"
     font-weight="700"
     fill="#fbbf24"
     text-anchor="middle"
     id="text17-0"
     transform="scale(-1)">P</text>
  <rect
     x="-272.47803"
     y="-349.66504"
     width="14"
     height="5"
     rx="0"
     fill="#d4a017"
     id="rect18-2"
     transform="scale(-1)" />
  <!-- PAGODA centered at x=150 -->
  <!-- Finial -->
  <line
     x1="150"
     y1="85"
     x2="150"
     y2="103"
     stroke="#FBBF24"
     stroke-width="2.5"
     stroke-linecap="round"
     id="line18" />
  <circle
     cx="150"
     cy="80"
     r="7"
     fill="#FBBF24"
     id="circle18" />
  <circle
     cx="150"
     cy="80"
     r="4"
     fill="#B91C1C"
     id="circle19" />
  <circle
     cx="150"
     cy="80"
     r="2"
     fill="#FBBF24"
     id="circle20" />
  <!-- Tier 5 (top) -->
  <polygon
     points="150,103 135,118 165,118"
     fill="#FBBF24"
     id="polygon20" />
  <path
     d="M135,118 Q124,123 121,130"
     fill="none"
     stroke="#FBBF24"
     stroke-width="2"
     stroke-linecap="round"
     id="path20" />
  <path
     d="M165,118 Q176,123 179,130"
     fill="none"
     stroke="#FBBF24"
     stroke-width="2"
     stroke-linecap="round"
     id="path21" />
  <rect
     x="136"
     y="118"
     width="28"
     height="12"
     rx="0"
     fill="#BA1616"
     id="rect21" />
  <rect
     x="136"
     y="118"
     width="28"
     height="12"
     rx="0"
     fill="none"
     stroke="#D4A017"
     stroke-width="0.8"
     id="rect22" />
  <rect
     x="146"
     y="121"
     width="8"
     height="6"
     rx="1"
     fill="#FBBF24"
     opacity="0.5"
     id="rect23" />
  <!-- Tier 4 -->
  <polygon
     points="150,130 128,148 172,148"
     fill="#FBBF24"
     id="polygon23" />
  <path
     d="M128,148 Q114,154 111,163"
     fill="none"
     stroke="#FBBF24"
     stroke-width="2"
     stroke-linecap="round"
     id="path23" />
  <path
     d="M172,148 Q186,154 189,163"
     fill="none"
     stroke="#FBBF24"
     stroke-width="2"
     stroke-linecap="round"
     id="path24" />
  <rect
     x="129"
     y="148"
     width="42"
     height="15"
     rx="0"
     fill="#BA1616"
     id="rect24" />
  <rect
     x="129"
     y="148"
     width="42"
     height="15"
     rx="0"
     fill="none"
     stroke="#D4A017"
     stroke-width="0.8"
     id="rect25" />
  <rect
     x="142"
     y="151"
     width="16"
     height="9"
     rx="1"
     fill="#FBBF24"
     opacity="0.45"
     id="rect26" />
  <!-- Tier 3 -->
  <polygon
     points="150,163 120,184 180,184"
     fill="#FBBF24"
     id="polygon26" />
  <path
     d="M120,184 Q103,192 100,202"
     fill="none"
     stroke="#FBBF24"
     stroke-width="2.2"
     stroke-linecap="round"
     id="path26" />
  <path
     d="M180,184 Q197,192 200,202"
     fill="none"
     stroke="#FBBF24"
     stroke-width="2.2"
     stroke-linecap="round"
     id="path27" />
  <rect
     x="121"
     y="184"
     width="58"
     height="18"
     rx="0"
     fill="#BA1616"
     id="rect27" />
  <rect
     x="121"
     y="184"
     width="58"
     height="18"
     rx="0"
     fill="none"
     stroke="#D4A017"
     stroke-width="0.8"
     id="rect28" />
  <rect
     x="136"
     y="187"
     width="28"
     height="11"
     rx="1"
     fill="#FBBF24"
     opacity="0.4"
     id="rect29" />
  <!-- Tier 2 -->
  <polygon
     points="150,202 110,226 190,226"
     fill="#FBBF24"
     id="polygon29" />
  <path
     d="M110,226 Q90,235 87,247"
     fill="none"
     stroke="#FBBF24"
     stroke-width="2.5"
     stroke-linecap="round"
     id="path29" />
  <path
     d="M190,226 Q210,235 213,247"
     fill="none"
     stroke="#FBBF24"
     stroke-width="2.5"
     stroke-linecap="round"
     id="path30" />
  <rect
     x="111"
     y="226"
     width="78"
     height="21"
     rx="0"
     fill="#BA1616"
     id="rect30" />
  <rect
     x="111"
     y="226"
     width="78"
     height="21"
     rx="0"
     fill="none"
     stroke="#D4A017"
     stroke-width="0.8"
     id="rect31" />
  <rect
     x="129"
     y="229"
     width="42"
     height="13"
     rx="1"
     fill="#FBBF24"
     opacity="0.35"
     id="rect32" />
  <!-- Lanterns tier 2 -->
  <line
     x1="103"
     y1="226"
     x2="103"
     y2="238"
     stroke="#D4A017"
     stroke-width="1"
     id="line32" />
  <rect
     x="98"
     y="238"
     width="10"
     height="7"
     rx="2"
     fill="#FBBF24"
     id="rect33" />
  <line
     x1="103"
     y1="245"
     x2="103"
     y2="249"
     stroke="#D4A017"
     stroke-width="1"
     id="line33" />
  <line
     x1="197"
     y1="226"
     x2="197"
     y2="238"
     stroke="#D4A017"
     stroke-width="1"
     id="line34" />
  <rect
     x="192"
     y="238"
     width="10"
     height="7"
     rx="2"
     fill="#FBBF24"
     id="rect34" />
  <line
     x1="197"
     y1="245"
     x2="197"
     y2="249"
     stroke="#D4A017"
     stroke-width="1"
     id="line35" />
  <!-- Tier 1 (base) -->
  <polygon
     points="150,247 98,276 202,276"
     fill="#FBBF24"
     id="polygon35" />
  <path
     d="M98,276 Q75,287 72,300"
     fill="none"
     stroke="#FBBF24"
     stroke-width="2.5"
     stroke-linecap="round"
     id="path35" />
  <path
     d="M202,276 Q225,287 228,300"
     fill="none"
     stroke="#FBBF24"
     stroke-width="2.5"
     stroke-linecap="round"
     id="path36" />
  <rect
     x="99"
     y="276"
     width="102"
     height="26"
     rx="0"
     fill="#BA1616"
     id="rect36" />
  <rect
     x="99"
     y="276"
     width="102"
     height="26"
     rx="0"
     fill="none"
     stroke="#D4A017"
     stroke-width="0.8"
     id="rect37" />
  <!-- Door arch -->
  <rect
     x="139"
     y="281"
     width="22"
     height="16"
     rx="4"
     fill="#FBBF24"
     opacity="0.5"
     id="rect38" />
  <rect
     x="139"
     y="289"
     width="22"
     height="8"
     rx="0"
     fill="#FBBF24"
     opacity="0.3"
     id="rect39" />
  <!-- Base steps -->
  <rect
     x="86"
     y="302"
     width="128"
     height="8"
     rx="2"
     fill="#D4A017"
     id="rect40" />
  <rect
     x="95"
     y="310"
     width="110"
     height="7"
     rx="2"
     fill="#B8860B"
     id="rect41" />
  <rect
     x="106"
     y="317"
     width="88"
     height="6"
     rx="2"
     fill="#9A7200"
     id="rect42" />
  <!-- Ground line -->
  <line
     x1="65"
     y1="323"
     x2="235"
     y2="323"
     stroke="#D4A017"
     stroke-width="1.2"
     id="line42" />
</svg>
