<?xml version="1.0" encoding="UTF-8" standalone="no"?>
<svg
   version="1.1"
   id="Layer_1"
   x="0px"
   y="0px"
   width="100%"
   viewBox="0 0 1024 1024"
   enable-background="new 0 0 1024 1024"
   xml:space="preserve"
   sodipodi:docname="AppIcon.svg"
   inkscape:version="1.4.2 (ebf0e940, 2025-05-08)"
   xmlns:inkscape="http://www.inkscape.org/namespaces/inkscape"
   xmlns:sodipodi="http://sodipodi.sourceforge.net/DTD/sodipodi-0.dtd"
   xmlns:xlink="http://www.w3.org/1999/xlink"
   xmlns="http://www.w3.org/2000/svg"
   xmlns:svg="http://www.w3.org/2000/svg"><defs
   id="defs13"><linearGradient
     id="swatch10"
     inkscape:swatch="solid"><stop
       style="stop-color:#000000;stop-opacity:1;"
       offset="0"
       id="stop10" /></linearGradient><linearGradient
     id="swatch3"
     inkscape:swatch="solid"><stop
       style="stop-color:#000000;stop-opacity:0;"
       offset="0"
       id="stop3" /></linearGradient><linearGradient
     inkscape:collect="always"
     xlink:href="#swatch3"
     id="linearGradient10"
     x1="2.3475061e-06"
     y1="513.23077"
     x2="1022.7693"
     y2="513.23077"
     gradientUnits="userSpaceOnUse" /><linearGradient
     id="backgroundGradient"
     x1="0%"
     y1="0%"
     x2="0%"
     y2="100%"
     gradientUnits="objectBoundingBox"><stop
       style="stop-color:#3378f6;stop-opacity:1;"
       offset="0%"
       id="stopTop" /><stop
       style="stop-color:#71bceb;stop-opacity:1;"
       offset="100%"
       id="stopBottom" /></linearGradient></defs><sodipodi:namedview
   id="namedview13"
   pagecolor="#ffffff"
   bordercolor="#000000"
   borderopacity="0.25"
   inkscape:showpageshadow="2"
   inkscape:pageopacity="0.0"
   inkscape:pagecheckerboard="0"
   inkscape:deskcolor="#d1d1d1"
   inkscape:zoom="0.8125"
   inkscape:cx="512"
   inkscape:cy="512"
   inkscape:window-width="1944"
   inkscape:window-height="1067"
   inkscape:window-x="3045"
   inkscape:window-y="25"
   inkscape:window-maximized="0"
   inkscape:current-layer="Layer_1" />

<rect
   width="100%"
   height="100%"
   fill="url(#backgroundGradient)"
   id="backgroundRect" />











<rect
   style="fill:#000080;fill-opacity:0;stroke:url(#linearGradient10)"
   id="rect8"
   width="1022.7693"
   height="1021.5385"
   x="2.3475061e-06"
   y="2.4615362"
   inkscape:label="rect8" /><g
   inkscape:groupmode="layer"
   id="layer1"
   inkscape:label="Background"><rect
     style="fill:#000080;fill-opacity:0;stroke-width:4.76409"
     id="rect6"
     width="1025.1558"
     height="1025.1558"
     x="0.037520774"
     y="0.037517879" /></g><path
   fill="#000000"
   opacity="1.000000"
   stroke="none"
   d=" M377.585052,480.489868   C376.671265,500.239807 375.047150,519.496277 375.159363,538.828064   C375.170105,540.677429 376.393036,543.506409 372.990265,544.039734   C369.234070,544.628418 369.694855,541.281189 369.178955,539.385315   C363.427429,518.247925 363.610596,496.695648 364.108612,474.989380   C364.684753,449.876770 371.896759,425.823334 374.464142,401.071136   C375.563538,390.471832 375.948334,379.826904 375.672302,369.157532   C375.601776,366.431152 374.299927,365.189606 371.935394,364.716309   C358.620789,362.051392 353.988831,352.113983 351.757172,340.366486   C350.894165,335.823792 350.730804,331.148163 350.220856,326.266754   C347.920135,326.284332 347.072601,328.290375 345.730499,329.583832   C340.513092,334.612152 335.107697,339.225128 327.262726,339.397461   C317.326721,339.615723 310.290833,334.704590 307.761536,325.041809   C305.619568,316.858948 304.102295,308.514404 302.060883,300.303009   C298.519073,286.056580 290.111786,274.460419 281.620056,262.849854   C273.348358,251.540146 266.083099,239.759476 263.319946,225.544235   C259.718140,207.014267 264.273102,191.072052 276.354584,176.883041   C284.694458,167.088348 294.140045,158.396133 303.248718,149.366943   C319.225952,133.529068 335.225891,117.713745 351.290405,101.964500   C354.854156,98.470665 358.630157,95.175621 362.473480,91.988007   C373.475220,82.863281 386.396881,80.898865 400.079193,82.509476   C403.399109,82.900261 406.208313,82.631004 409.142151,80.986473   C424.053131,72.628258 439.693268,66.214355 456.673065,63.353378   C460.171722,62.763885 463.639984,62.881317 467.125244,62.759483   C492.713928,61.864975 518.084412,63.119228 542.765564,70.756271   C558.741394,75.699631 574.020020,82.277695 588.310425,90.990135   C592.417542,93.494148 596.535034,94.824196 601.416687,94.950195   C610.538513,95.185646 619.758057,95.026482 628.640381,97.776283   C639.228638,101.054207 648.310547,106.878197 655.942749,114.778099   C682.187622,141.943726 705.687622,171.268127 724.718872,203.989258   C733.145447,218.477402 734.623962,234.112839 731.337280,250.374313   C728.638367,263.727325 720.626221,273.939911 711.478516,283.281403   C694.340637,300.782288 676.852722,317.939880 659.580383,335.309875   C655.118469,339.796997 651.132446,344.772675 646.525452,349.095154   C642.963196,352.437469 642.679871,355.904449 643.764404,360.323669   C647.806519,376.795044 654.681824,392.084534 662.462585,407.053192   C674.238770,429.708405 689.483215,450.284454 701.662598,472.688232   C716.974060,500.853271 730.500916,529.755432 736.688171,561.504333   C737.800659,567.212891 738.887512,573.076477 737.796692,579.109741   C735.401001,578.645020 735.219055,576.950012 734.808411,575.637756   C723.827637,540.548706 706.134827,508.692596 687.730225,477.141052   C679.170898,462.467560 671.152649,447.474243 663.066772,432.529755   C651.047546,410.315704 643.977844,386.499329 640.518860,361.546265   C640.291565,359.906586 639.732117,358.314575 639.357361,356.693420   C638.729248,353.976044 637.327515,353.293427 634.618469,354.326080   C622.949707,358.774017 612.258606,355.564880 602.368469,349.280884   C587.496704,339.831604 579.548828,325.248505 574.679260,308.956482   C567.647766,285.431488 570.024780,261.933594 576.082886,238.571884   C581.000977,219.606567 587.171082,200.962067 590.158813,181.502792   C592.813904,164.210129 590.925354,147.687149 582.758301,132.106598   C581.254578,129.237823 580.255798,126.427322 580.469971,122.784264   C583.247681,123.375931 584.432495,125.647079 585.753662,127.535332   C595.220947,141.066467 598.872742,156.499939 600.261169,172.638550   C602.085815,193.848083 596.113831,213.916962 591.012390,234.071152   C586.208862,253.048523 582.313843,272.175446 584.395447,291.803375   C586.384827,310.561523 592.840881,327.457520 608.974548,339.022552   C621.116455,347.726166 632.073608,347.124817 642.744507,336.751648   C653.612671,326.186798 662.811218,314.060364 673.625610,303.388275   C683.498535,293.645203 694.337158,285.073822 704.750305,275.991882   C711.474548,270.127228 716.990417,263.307281 722.307312,256.245789   C730.188049,245.779190 730.743347,234.532333 725.917358,222.733597   C720.990845,210.689011 713.518799,200.218155 704.683289,190.866486   C686.242249,171.348068 669.248474,150.590652 651.880676,130.155563   C638.785522,114.747734 622.441467,105.388863 602.502319,102.459473   C595.297729,101.400993 588.624023,98.991447 582.179260,95.849243   C559.722961,84.900375 536.009644,79.587532 511.081635,78.071800   C492.719238,76.955284 474.448700,77.341042 456.187531,78.482391   C440.351990,79.472130 425.117523,83.873795 410.157715,89.064018   C407.307617,90.052849 404.776031,90.620056 401.539734,89.723488   C396.417236,88.304382 391.340973,90.069046 386.587891,92.302856   C374.862335,97.813530 365.720917,106.457336 357.534729,116.269005   C342.362061,134.454422 326.219269,151.716171 308.890442,167.882278   C301.829681,174.469345 295.191315,181.492981 288.844269,188.806732   C277.443817,201.943588 275.572296,216.666672 280.993469,232.675385   C283.942230,241.383011 287.791931,249.793396 293.017883,257.320801   C305.497498,275.296173 311.887604,295.296783 314.338562,316.817261   C314.710510,320.082825 315.741852,323.335907 316.896576,326.435120   C318.652740,331.148621 321.394073,332.073730 325.958405,329.789795   C331.066833,327.233582 334.522552,322.908295 337.491730,318.256012   C346.235901,304.555084 350.912506,289.549072 352.881134,273.376160   C355.183380,254.462189 352.147308,235.833939 351.177368,217.108978   C349.589233,186.449005 352.930267,156.958145 369.328674,130.156601   C371.963104,125.850914 374.536133,121.357231 379.077423,117.902122   C380.047974,121.322838 376.602386,122.813911 376.796112,125.522087   C378.575043,124.936195 378.875305,122.434677 381.047516,122.413399   C382.514374,123.807335 381.009918,124.789192 380.442474,125.760849   C371.378723,141.281265 367.203003,158.199524 365.178558,175.929596   C363.041229,194.648209 365.421936,213.090927 367.075806,231.627838   C367.823883,240.012802 367.916321,248.456100 369.988403,258.069489   C381.733276,241.910263 392.925018,226.796188 402.328674,210.520309   C407.756775,215.379654 404.001190,219.512283 401.922211,223.423294   C393.792023,238.717941 385.431000,253.889923 377.151520,269.105194   C365.571533,290.385956 362.147827,313.322479 363.372040,337.188721   C363.544525,340.550568 364.692413,343.721436 366.026062,346.765808   C368.973755,353.494781 374.374176,356.242188 381.457947,354.370850   C389.364624,352.282104 396.850983,349.004181 404.365784,345.798187   C408.730927,343.935913 408.659210,340.543091 408.717102,336.740509   C408.775696,332.890625 407.989075,330.030579 404.001373,328.397217   C389.892395,322.618134 379.683746,313.021271 374.676422,298.249054   C369.610626,283.304291 377.397797,268.933929 393.180023,267.313934   C407.499512,265.844086 422.114197,265.288391 436.089233,270.920410   C447.277008,275.429169 454.809937,285.305847 454.274048,295.757355   C454.182037,297.551910 453.934418,299.503906 453.141907,301.071320   C445.869385,315.454956 434.875793,325.430084 418.937317,329.377960   C416.393555,330.008057 413.097900,329.976929 412.874390,333.449921   C412.636169,337.151733 411.860809,341.932770 415.528198,343.964020   C430.378693,352.189270 445.265442,360.599823 461.918304,364.687927   C478.417023,368.738220 492.854279,363.872314 505.398651,352.855560   C511.530121,347.470734 517.491455,341.892548 523.581421,336.459717   C524.515686,335.626282 525.634705,334.437531 527.075745,335.536133   C528.336182,336.497009 528.269653,337.865417 527.596436,339.152954   C520.155579,353.384155 512.773315,367.508026 497.066467,374.875671   C489.465302,378.441132 481.530243,378.884979 473.655151,378.714050   C458.781403,378.391235 444.199982,381.270538 429.385071,381.719391   C412.442993,382.232727 396.468262,381.006195 382.875214,369.566650   C382.421844,369.185150 381.754242,369.058197 380.742554,368.620544   C384.200867,406.191833 381.634186,443.132202 377.585052,480.489868  M403.347443,357.957245   C399.594086,359.585205 395.656494,360.903717 392.665253,363.966644   C398.867401,370.063477 429.999786,374.456635 440.696991,370.763733   C433.994202,367.305786 427.635559,363.670258 421.896393,359.188080   C416.100830,354.661865 410.483429,352.540619 403.347443,357.957245  z"
   id="path5"
   style="fill:#8f2a58;fill-opacity:1" /><path
   fill="#000000"
   opacity="1.000000"
   stroke="none"
   d=" M181.421173,748.162354   C177.661957,767.929871 170.244690,786.196716 164.985138,805.092224   C156.742249,834.705750 154.686966,864.362610 163.331299,894.250244   C166.034988,903.598267 170.239578,912.259644 175.394669,920.490906   C176.294281,921.927307 178.086777,923.185120 176.814819,925.701111   C172.664902,924.292664 172.170029,919.597168 168.723923,916.848450   C169.955673,921.729004 174.273422,924.808472 174.516617,929.406616   C174.081940,929.651917 173.647263,929.897217 173.212585,930.142517   C170.159012,925.969971 166.845337,921.961365 164.095276,917.597534   C149.344208,894.190369 143.566208,868.870972 145.202393,841.050842   C146.728638,815.100098 155.443726,791.392761 163.666641,767.363892   C168.033798,754.602295 172.533279,741.791687 173.341568,728.268860   C174.354874,711.316040 166.945068,689.716125 143.493515,685.381836   C140.729202,684.870911 138.014175,684.038391 135.320511,683.211121   C128.876999,681.232117 124.595459,677.212708 123.871735,670.235168   C123.181480,663.580383 125.608749,658.058777 130.886765,654.044495   C141.618958,645.881958 153.784012,645.395447 166.146164,648.703430   C199.034851,657.504150 218.956512,683.776550 222.944565,714.103943   C225.799652,735.815369 222.509552,757.405884 215.534973,778.535034   C208.553024,799.686584 200.946106,820.750183 196.859909,842.744019   C194.498550,855.453979 193.209213,868.332397 195.818710,882.640259   C199.072815,871.908997 202.287613,862.570862 206.052399,853.415405   C214.423706,833.057190 228.846939,817.142883 243.724854,801.571045   C257.188385,787.479736 271.476318,774.177612 284.004913,759.192017   C292.423859,749.122070 297.565186,737.530579 300.370636,724.812256   C300.547363,724.011230 300.584747,723.161133 300.551422,722.339355   C300.533020,721.885681 300.232422,721.443481 299.837860,720.425354   C278.904449,729.731812 260.866760,743.342651 242.642639,756.872314   C246.170502,750.357788 251.403366,745.637024 256.716980,741.055786   C268.122528,731.222290 280.758698,723.181458 293.912628,715.901001   C295.825287,714.842468 299.362854,714.427429 297.954620,710.815857   C296.511963,707.116028 293.676086,706.977112 290.118011,707.966064   C272.195496,712.947754 255.223236,720.079102 239.307251,729.722534   C237.377747,730.891602 235.558853,732.584106 232.935944,731.838379   C234.529175,727.420837 243.366821,721.581970 260.162964,713.177307   C270.138000,708.185852 280.789673,704.935974 291.321564,700.971436   C290.237610,695.923767 288.411407,693.858337 282.995453,694.701843   C269.652161,696.779968 256.375610,698.943115 243.450058,702.987610   C241.397736,703.629822 239.105621,704.863586 236.453186,703.183289   C237.858566,700.443970 240.627121,700.007812 242.943863,699.136169   C255.300858,694.487366 268.156097,691.642944 281.087219,689.235229   C285.166748,688.475647 285.843750,687.021362 284.773590,683.233337   C279.943817,666.137756 281.396149,649.376770 288.232941,633.067505   C289.476654,630.100647 289.609955,627.501099 288.244354,624.499939   C285.935852,619.426575 285.629120,613.889099 285.370514,608.391479   C284.946625,599.380249 280.736206,591.421387 278.135712,583.036621   C274.023621,569.777954 273.011841,556.271423 273.721191,542.568909   C274.371368,530.008179 282.928467,524.186462 295.063416,527.845581   C305.418030,530.967773 313.329651,537.987610 321.358368,544.730652   C329.137085,551.263733 336.792633,557.948669 344.356110,564.729980   C346.904480,567.014832 349.293701,567.473877 352.513367,566.313660   C365.646912,561.580994 379.251526,561.273987 392.977112,562.416321   C398.119629,562.844299 403.274597,563.145996 408.405243,563.683472   C411.536469,564.011536 413.360565,562.142822 415.195374,560.189026   C424.659668,550.111084 433.411530,539.375610 443.469421,529.840454   C447.235657,526.270020 451.197479,522.984009 455.479675,520.092896   C467.463623,512.002014 478.590820,515.508118 483.937927,529.013123   C487.496979,538.002136 488.030884,547.548340 488.127838,556.975647   C488.331818,576.807617 485.546326,596.403259 481.749756,615.828857   C480.857666,620.393494 480.869751,624.559265 482.499176,628.940430   C487.790405,643.167542 490.299866,657.826599 488.375244,673.022461   C487.761536,677.868347 488.800659,681.197632 494.424561,681.603149   C495.654907,681.691833 497.043488,682.158997 497.765717,683.737854   C495.650543,685.841248 493.018463,685.496765 490.379547,685.394226   C486.326508,685.236633 483.621765,688.523987 482.768646,694.642700   C482.177948,698.879456 485.794342,698.329468 488.093414,698.935364   C495.530975,700.895386 496.419861,701.261047 498.796143,704.579529   C494.298553,706.648926 490.013824,705.196167 485.747345,704.118958   C479.865265,702.633911 474.348541,706.219971 473.524628,712.057190   C473.209656,714.288574 474.928589,714.927063 476.273773,715.750000   C482.242523,719.401550 488.289368,722.925476 494.257050,726.578735   C496.173920,727.752258 498.435425,728.754028 498.677399,732.147278   C487.755341,732.347351 480.263397,723.963379 470.043457,721.297058   C468.942596,725.897522 470.313110,730.194885 470.892151,734.432861   C472.884705,749.016846 478.147186,762.744507 482.317993,776.754456   C487.209686,793.185974 491.497467,809.800171 491.956573,826.994141   C492.431915,844.795166 488.439148,861.980957 482.516235,878.711121   C480.830902,883.471558 479.460052,888.430298 475.328064,892.795349   C474.269409,888.283691 477.056854,885.438416 477.304352,881.855896   C475.123383,883.616516 475.764832,887.577820 472.539703,888.375366   C471.683594,887.489136 471.829926,886.672424 472.080566,885.866455   C481.989136,854.000427 480.463501,822.155212 472.296173,790.206726   C468.268738,774.452393 464.192230,758.654907 463.075836,742.334900   C462.737946,737.395264 463.023560,732.412964 463.023560,726.854248   C456.680573,728.785095 454.613983,736.935730 446.771790,734.949890   C450.636047,728.411865 456.708313,723.877625 459.867767,716.342346   C439.815155,707.720154 418.947266,702.890381 397.045197,699.199036   C399.756531,695.671448 402.708282,696.667480 405.249695,696.766357   C422.742584,697.447021 439.440094,701.949158 455.899048,707.541382   C457.316925,708.023132 458.745361,708.487244 460.194122,708.862183   C464.632996,710.010742 468.486359,707.102173 468.406219,702.651306   C468.354462,699.776917 465.893646,699.750793 464.078278,699.494263   C455.341949,698.259644 446.602081,696.947815 437.818359,696.177307   C426.716766,695.203369 415.612701,694.073669 404.443268,694.049622   C402.326324,694.045044 400.279449,693.635437 398.102081,691.860657   C402.570435,689.368347 406.915222,689.257568 411.088287,689.053467   C429.974792,688.129456 448.700500,689.550232 467.200836,693.577576   C470.347076,694.262451 473.139160,694.459900 474.460388,690.525940   C476.424561,684.677734 475.625061,683.360229 469.429321,683.358154   C446.940002,683.350525 424.510498,684.120972 402.395203,688.777771   C400.856415,689.101868 399.218262,689.901611 397.738373,688.341919   C398.287720,686.055115 400.359070,685.979492 401.974640,685.431152   C415.460968,680.854492 429.218719,677.805054 443.571960,677.990784   C452.570282,678.107300 461.570984,678.052673 470.570618,678.054138   C477.543610,678.055298 477.747620,678.058838 478.363098,670.998596   C479.175354,661.681152 479.872925,652.075073 477.242065,643.156982   C473.277191,629.716858 474.470734,616.597839 476.308258,603.157959   C478.770386,585.149780 480.174438,567.028442 477.887939,548.868469   C477.096741,542.584595 475.744507,536.343201 472.077301,530.962830   C469.033356,526.497009 468.051819,527.310425 463.842682,530.605103   C457.301971,535.724854 451.989777,541.664185 447.370758,548.429932   C443.123108,554.651794 439.607452,561.258179 436.751770,568.202209   C435.988098,570.059143 434.554810,572.074707 436.016388,574.277832   C438.487152,575.302734 441.038605,571.697083 443.083130,574.132019   C444.969666,576.378845 441.396301,577.723877 441.353455,580.055542   C443.231384,582.078613 446.156372,578.958496 448.048828,581.036926   C448.933075,582.760132 446.464966,583.611267 447.233704,585.639954   C459.035522,589.184875 465.495728,598.114929 469.638885,609.423523   C467.875671,610.647278 466.561951,611.559021 465.040070,612.615234   C462.078766,609.266785 459.267242,605.792725 456.144531,602.625549   C451.387421,597.800720 445.942719,594.060120 438.972504,593.150146   C435.966553,592.757690 434.625153,591.029053 435.242798,588.017273   C430.166412,587.471313 425.839508,582.489380 425.934235,577.252075   C426.078644,569.271240 429.853851,562.528625 433.687653,555.884094   C435.929108,551.999390 438.577332,548.349304 440.719788,544.225586   C433.504364,551.158997 425.902679,557.741760 419.192963,565.134216   C413.600494,571.295715 406.833496,573.241638 399.146698,573.256653   C383.498291,573.287170 367.859406,573.206665 352.291992,575.237000   C348.298309,575.757874 344.962067,574.894714 341.490082,571.900757   C334.706604,566.051392 327.055267,561.208435 319.251984,556.252869   C321.288025,559.255615 323.114471,562.429504 325.400482,565.228088   C331.590363,572.805969 330.868561,581.491943 329.793549,590.277649   C329.621887,591.680359 328.944519,592.732666 327.425476,593.154602   C317.243439,595.982605 310.896240,603.255981 305.692474,611.889282   C304.605286,613.692993 303.835999,615.851074 301.366882,616.821899   C299.779633,614.422974 300.491669,612.020874 301.404755,609.763367   C304.806793,601.352051 309.059845,593.476685 316.405853,587.758301   C317.716553,586.738098 318.511566,585.636475 318.240601,583.971313   C317.786987,581.183899 319.130737,579.290771 321.869629,577.771973   C313.380402,563.408325 304.212799,550.332336 288.569794,543.409485   C286.992371,542.711426 284.710785,542.625122 285.130951,539.971619   C285.345886,538.614075 284.501556,538.125610 283.515411,537.887634   C282.262451,537.585083 281.761597,538.650391 281.351044,539.523254   C280.132751,542.113464 279.479126,544.905884 279.394775,547.726746   C279.005066,560.757446 279.621582,573.782898 283.967438,586.153687   C288.793304,599.890869 289.763092,614.436401 293.686798,628.373535   C295.408600,634.489563 291.506927,640.970886 290.783752,647.416565   C289.389648,659.842224 290.508636,671.959351 293.919739,683.950317   C294.792267,687.017395 296.919098,687.036682 299.336212,687.034912   C311.327301,687.026184 323.330719,686.603394 335.282837,688.018127   C338.007111,688.340698 340.873749,688.228394 344.413910,691.295471   C328.282806,693.593933 313.166168,690.801697 298.428833,693.338867   C298.851501,698.850403 299.954926,699.645203 306.019775,698.363159   C316.332825,696.183044 326.801941,695.522644 337.277130,694.896423   C338.997162,694.793640 340.969025,694.198547 342.865387,696.879395   C329.616241,700.765686 315.957306,701.021179 302.989990,704.816528   C303.770203,708.925842 305.519867,710.362793 309.377472,709.052246   C318.991699,705.785889 328.703125,702.811829 338.692566,700.893494   C340.342072,700.576782 342.217041,699.584961 344.035675,701.502319   C340.543793,705.456665 334.824310,704.857605 330.948303,707.868469   C339.305084,716.758118 355.525208,715.717285 362.361298,706.117798   C364.093842,703.684937 363.885010,701.391663 362.211609,699.221802   C359.265137,695.401367 356.203461,691.667114 353.108582,687.964905   C351.678101,686.253662 350.503021,684.537781 350.673248,682.164978   C351.128937,675.813416 349.883514,669.545044 349.696442,663.224731   C349.560699,658.639587 347.706390,656.200806 342.672455,656.303650   C333.557098,656.489868 325.315063,654.747620 321.629333,644.767700   C320.730103,642.332947 318.212830,642.480347 316.175262,641.862488   C314.419739,641.330200 312.545074,640.618774 312.465607,638.348816   C312.383301,635.997437 314.314606,635.445496 316.042053,634.793762   C320.903229,632.959778 325.915741,631.485657 331.101044,631.467163   C340.850525,631.432373 347.365082,636.439148 351.142456,645.289795   C354.219391,652.499329 354.941284,660.057556 354.465088,667.761841   C354.033386,674.746521 354.455444,675.488525 361.552521,675.859924   C365.867432,676.085754 370.209015,675.779785 374.538879,675.750488   C376.530731,675.737061 378.551788,675.612488 380.509796,675.889954   C385.537354,676.602295 386.576202,678.686646 383.706085,682.999756   C381.410645,686.449219 378.543762,689.518677 375.927002,692.753967   C368.802551,701.562378 369.094452,703.488525 379.129364,708.710327   C389.860016,714.294067 400.730255,714.954163 411.595459,708.849365   C413.566223,707.742065 415.594604,706.408569 418.097992,707.427490   C418.908966,709.936401 416.982513,710.750366 415.554901,711.723328   C404.606903,719.185242 392.782318,720.298584 380.308472,716.454407   C379.516235,716.210205 378.687805,715.957092 378.002014,715.513672   C372.012329,711.639954 367.125671,711.228760 360.178894,715.640076   C349.473480,722.438171 334.655853,720.596558 327.931946,708.625244   C321.725250,710.371277 315.574432,712.508423 309.750214,715.454224   C310.102112,718.623474 312.891174,720.286255 312.920288,723.395142   C309.757446,724.084290 308.443390,720.926636 306.042908,720.129211   C304.328125,721.469543 304.584473,723.497498 304.405823,725.158691   C302.011200,747.425842 291.496857,765.842041 277.468384,782.649353   C263.575287,799.294495 247.305695,813.756775 233.527237,830.497070   C216.418716,851.283264 203.918961,874.359741 199.328415,901.190430   C198.806259,904.242249 196.519104,905.847229 195.238556,909.009460   C192.104584,904.793579 191.780731,900.247498 190.750595,896.064819   C183.665390,867.296997 187.250351,839.075317 195.069199,811.000854   C200.593277,791.166016 207.150848,771.541870 210.149261,751.106934   C214.264786,723.058533 211.219467,696.504639 191.114883,674.429871   C180.094574,662.329590 166.589294,655.010803 149.804123,655.479614   C142.401611,655.686340 135.535706,657.591797 132.369385,665.559448   C129.797989,672.029907 132.187195,677.714050 138.813522,679.852905   C142.752365,681.124268 146.887787,681.781006 150.925690,682.752075   C172.289764,687.890198 181.895493,705.091553 183.260529,723.964966   C183.836243,731.924744 183.411240,739.913696 181.421173,748.162354  M358.646179,681.625427   C361.946320,684.781433 363.977142,688.862183 366.115509,693.087708   C370.451630,690.380432 370.885803,685.848328 374.043762,682.704651   C368.743652,681.457886 364.014313,681.083801 358.646179,681.625427  z"
   id="path6"
   style="fill:#8f2a58;fill-opacity:1" /><path
   fill="#000000"
   opacity="1.000000"
   stroke="none"
   d=" M722.867920,643.801025   C742.360779,628.907532 773.530090,632.902222 789.678833,648.306702   C799.867310,658.025574 805.229614,670.309692 806.113892,684.229126   C806.904846,696.679932 807.792603,709.168579 807.199829,721.664001   C806.996216,725.954651 808.855408,727.131104 812.795227,727.079712   C827.119446,726.892578 841.449585,727.394470 855.676819,728.942688   C880.702026,731.665833 900.158875,753.966064 900.228943,779.266907   C900.242798,784.275940 900.105530,789.254150 899.179443,794.182617   C898.397034,798.346924 896.755005,798.960083 893.615540,796.012390   C890.279846,792.880493 886.609436,790.323364 882.295959,788.879944   C877.819031,787.381836 876.225586,784.099731 875.830994,779.788879   C874.283691,762.885010 863.397034,752.927002 846.204956,752.279480   C834.914673,751.854309 823.633179,751.123779 812.359009,750.362976   C804.000671,749.798950 795.707336,750.796326 787.466064,751.636230   C782.821594,752.109680 781.901001,750.575684 781.902649,746.701660   C781.908569,733.039795 781.941467,719.376465 781.752502,705.716614   C781.637573,697.406494 782.710632,689.028809 781.062805,680.794373   C778.598450,668.479675 764.740967,657.671997 752.700256,658.404541   C737.667908,659.319092 726.788757,669.147949 725.256958,683.284668   C723.025391,703.879761 724.762024,724.544373 724.257080,745.171082   C724.082947,752.287231 724.210571,752.185181 717.058044,752.336304   C712.039062,752.442322 707.093384,751.965088 702.148987,751.245117   C699.302917,750.830811 698.131287,749.257080 699.723083,746.766724   C710.109863,730.517273 706.348633,713.438721 702.324097,696.596680   C697.503174,676.422058 705.255432,655.359375 722.867920,643.801025  z"
   id="path7"
   style="fill:#8f2a58;fill-opacity:1" /><path
   fill="#000000"
   opacity="1.000000"
   stroke="none"
   d=" M754.924561,929.331116   C728.971680,932.114380 698.933411,908.996582 699.663269,874.626526   C699.899780,863.485962 698.953125,852.324463 698.784241,841.168945   C698.715210,836.608765 696.816956,835.162781 692.348877,835.241943   C677.535889,835.504517 662.716309,835.452209 647.998840,833.304260   C627.549744,830.319885 608.839233,810.009827 606.577698,789.467896   C604.512695,770.710510 608.684448,754.572388 622.877258,741.447144   C626.074707,738.490295 628.365784,738.175842 631.129028,741.467896   C631.770264,742.231750 632.522766,742.901245 633.205750,743.631226   C636.389038,747.033264 640.953308,750.096130 641.803589,754.408203   C642.680542,758.855713 637.299133,761.593994 634.929504,765.262146   C629.112854,774.266113 628.393372,783.814880 633.026672,793.282654   C638.078430,803.605408 646.500488,809.596680 658.370728,809.864807   C663.368530,809.977722 668.369263,809.955505 673.368591,810.007019   C688.027222,810.158142 702.691406,809.570984 717.345032,810.602234   C723.683228,811.048279 724.033508,811.020752 724.079834,817.596497   C724.212341,836.428528 724.136902,855.262146 724.313049,874.093567   C724.374023,880.613098 725.289429,886.931946 729.395264,892.503784   C737.051208,902.892883 750.028137,907.180359 762.695007,903.150696   C774.011902,899.550476 781.819763,888.679382 781.760498,876.079712   C781.720703,867.628662 782.228638,859.255737 783.341064,851.018188   C785.533447,850.354492 786.531311,851.711975 787.550171,852.684998   C792.730835,857.632751 797.747742,862.754578 802.994995,867.629211   C808.668823,872.900269 806.904663,879.453186 805.759949,885.454834   C801.322327,908.720886 785.208679,924.485718 761.877808,928.972473   C759.776489,929.376587 757.567566,929.221069 754.924561,929.331116  z"
   id="path8"
   style="fill:#8f2a58;fill-opacity:1" /><path
   fill="#000000"
   opacity="1.000000"
   stroke="none"
   d=" M641.873535,679.861938   C647.420471,682.682861 650.540527,687.564148 650.058411,692.216064   C649.580750,696.824829 645.767090,700.409607 639.826843,701.833374   C633.224609,703.415771 631.894714,705.662109 633.733704,712.357910   C634.575317,715.422241 635.949585,718.269958 637.560242,721.013245   C641.117920,727.072510 645.629456,732.412048 649.928894,737.936096   C660.166443,751.089661 679.436646,747.141357 687.490784,735.945679   C691.587646,730.250793 690.960693,723.878052 690.588989,717.642090   C690.112549,709.648010 688.189209,701.862061 685.277283,694.374451   C684.246338,691.723633 682.739685,689.306946 680.627686,687.337097   C678.106995,684.986023 675.533447,684.282837 672.750549,687.000183   C670.381531,689.313416 667.536072,690.356689 664.169556,690.401917   C659.300598,690.467407 655.778015,688.618958 653.917542,684.026245   C652.036072,679.381714 652.867126,675.041931 656.304810,671.580566   C659.771790,668.089844 664.403442,666.717957 668.616882,669.557556   C673.531799,672.869934 678.990479,674.610229 684.295959,676.878357   C687.230713,678.132935 689.901611,679.977661 691.460876,682.883972   C699.348938,697.586121 703.012085,713.195862 701.485168,729.926880   C700.994263,735.306030 698.670776,739.788391 695.275696,743.824158   C692.992981,746.537659 691.714111,749.331909 693.582947,752.904663   C694.635925,754.917664 694.687500,757.390381 693.200562,759.096924   C690.278564,762.450500 691.775696,765.221863 693.786133,768.052917   C702.014648,779.640137 712.802063,785.879822 727.439880,784.360046   C735.906982,783.480957 744.423157,783.753479 752.910400,784.040833   C758.934753,784.244690 763.525513,787.677734 767.607544,791.760010   C772.725952,796.878967 776.460205,802.992310 779.851440,809.328613   C787.962158,824.482971 796.292114,839.424927 809.153503,851.328552   C830.847412,871.406921 851.491028,869.132996 868.166382,844.636292   C873.724243,836.471558 878.659851,828.021484 881.603271,818.528625   C884.826477,808.133728 882.148926,803.903687 871.485352,802.298340   C859.324585,800.467590 846.927612,800.860657 834.842041,798.350525   C832.891846,797.945557 830.824890,797.859192 828.998291,797.147339   C822.480530,794.607605 816.244507,794.472778 809.174561,795.959229   C797.145752,798.488342 785.769043,788.649231 784.873169,776.497437   C784.063477,765.515320 795.056885,754.189575 806.635986,754.076599   C818.276733,753.963013 829.258850,767.137817 826.817322,778.946045   C825.780090,783.962280 827.249878,785.916260 831.941589,786.988098   C842.718323,789.450073 853.699646,789.965393 864.639771,790.878296   C869.135986,791.253479 873.591858,791.797546 877.950562,792.914368   C890.716431,796.185547 896.128479,804.534363 892.773560,817.262878   C887.451172,837.455688 876.972168,854.802917 860.543640,867.778503   C847.852722,877.802002 833.356201,877.780273 819.047546,871.101257   C803.097900,863.656128 791.908752,850.854065 782.647827,836.367920   C776.914368,827.399536 772.021057,817.895447 766.709656,808.655334   C764.795166,805.324829 762.551331,802.225525 759.806519,799.507019   C756.213135,795.948242 752.102295,794.215149 746.850769,794.185059   C738.834351,794.139160 730.896729,795.391479 722.911926,795.252502   C705.766907,794.954346 692.588318,787.229980 683.428650,772.916443   C681.059387,769.214050 676.854309,767.516235 674.728333,764.236694   C670.620911,757.900452 664.687500,756.925354 658.179993,756.211243   C653.542969,755.702393 649.750610,753.199951 646.420532,750.071716   C637.843750,742.015076 630.725037,732.812866 625.504944,722.257935   C621.301208,713.758118 620.232605,705.132568 625.636719,696.583679   C627.096558,694.274414 627.214172,691.528687 627.683044,688.918762   C628.952881,681.850159 634.290771,678.292969 641.873535,679.861938  z"
   id="path9"
   style="fill:#f68c84;fill-opacity:1" /><path
   fill="#000000"
   opacity="1.000000"
   stroke="none"
   d=" M516.939880,205.295502   C509.700775,204.304733 502.855011,201.565079 496.320801,206.483780   C494.764709,204.228378 493.478180,202.569977 494.396637,200.175034   C497.670685,191.637711 500.622070,182.985443 507.639374,176.468826   C515.824219,168.867996 527.371948,167.486038 536.455383,173.896042   C541.872375,177.718689 546.777954,182.268616 551.890381,186.519257   C553.998962,188.272369 554.597839,190.598572 554.211426,193.603043   C549.370056,194.321304 545.813354,197.507645 541.996887,200.417160   C534.665405,206.006409 526.270630,207.105621 516.939880,205.295502  z"
   id="path10"
   style="fill:#8f2a58;fill-opacity:1" /><path
   fill="#000000"
   opacity="1.000000"
   stroke="none"
   d=" M407.557770,172.590927   C413.085114,181.824387 413.439575,191.322037 411.140594,202.306625   C407.679688,197.231186 403.226044,197.179947 398.568237,197.213974   C393.399628,197.251770 388.923340,194.933411 384.985596,191.768143   C382.261749,189.578674 379.474091,186.961594 378.425140,183.754791   C377.172760,179.926041 372.695587,181.364685 370.956329,177.739792   C369.890289,175.517975 369.934937,174.765869 371.212128,173.626526   C374.180603,170.978485 377.262238,168.466553 380.781616,166.511871   C392.204803,160.167419 399.680145,161.756119 407.557770,172.590927  z"
   id="path11"
   style="fill:#8f2a58;fill-opacity:1" /><path
   fill="#000000"
   opacity="1.000000"
   stroke="none"
   d=" M414.596497,630.157593   C420.361176,631.063416 425.744171,631.754089 430.507507,635.420837   C421.148315,640.003357 418.219940,651.348389 407.794708,653.808350   C404.194611,654.657837 400.626495,655.404297 397.000397,655.250122   C392.969208,655.078735 390.336456,656.482605 388.834290,660.255249   C388.163452,661.940125 387.113037,663.475403 383.965271,663.982727   C384.161224,654.795898 386.904358,646.686584 391.490265,639.333252   C396.669708,631.028137 404.946381,629.149231 414.596497,630.157593  z"
   id="path12"
   style="fill:#8f2a58;fill-opacity:1" /><path
   fill="#000000"
   opacity="1.000000"
   stroke="none"
   d=" M348.454712,730.553955   C346.591095,728.704102 344.563141,727.358398 344.577240,724.659241   C346.784698,722.973145 348.449585,724.643066 349.981110,725.611633   C365.065063,735.150330 380.367737,734.615845 395.931335,726.905823   C398.164001,725.799805 400.484833,723.914429 403.208496,726.061340   C396.456024,737.962646 364.295074,747.498352 348.454712,730.553955  z"
   id="path13"
   style="fill:#8f2a58;fill-opacity:1" /><g
   inkscape:groupmode="layer"
   id="layer2"
   inkscape:label="Foreground" /></svg>
